<?xml version="1.0" encoding="UTF-8" standalone="no"?>
<!-- Created with Inkscape (http://www.inkscape.org/) -->

<svg
   xmlns:dc="http://purl.org/dc/elements/1.1/"
   xmlns:cc="http://creativecommons.org/ns#"
   xmlns:rdf="http://www.w3.org/1999/02/22-rdf-syntax-ns#"
   xmlns:svg="http://www.w3.org/2000/svg"
   xmlns="http://www.w3.org/2000/svg"
   xmlns:sodipodi="http://sodipodi.sourceforge.net/DTD/sodipodi-0.dtd"
   xmlns:inkscape="http://www.inkscape.org/namespaces/inkscape"
   id="svg3336"
   version="1.1"
   inkscape:version="0.91 r13725"
   xml:space="preserve"
   width="1527.7646"
   height="944.11243"
   viewBox="0 0 1527.7646 944.11243"
   sodipodi:docname="firstplotmodified.svg"
   inkscape:export-filename="C:\Users\Dator\Documents\R_HW\visualization\firstplotmodified.png"
   inkscape:export-xdpi="90"
   inkscape:export-ydpi="90"><metadata
     id="metadata3342"><rdf:RDF><cc:Work
         rdf:about=""><dc:format>image/svg+xml</dc:format><dc:type
           rdf:resource="http://purl.org/dc/dcmitype/StillImage" /><dc:title></dc:title></cc:Work></rdf:RDF></metadata><defs
     id="defs3340" /><sodipodi:namedview
     pagecolor="#ffffff"
     bordercolor="#666666"
     borderopacity="1"
     objecttolerance="10"
     gridtolerance="10"
     guidetolerance="10"
     inkscape:pageopacity="0"
     inkscape:pageshadow="2"
     inkscape:window-width="1366"
     inkscape:window-height="746"
     id="namedview3338"
     showgrid="false"
     inkscape:snap-bbox="true"
     inkscape:zoom="0.57848045"
     inkscape:cx="618.79086"
     inkscape:cy="444.91417"
     inkscape:window-x="-8"
     inkscape:window-y="-8"
     inkscape:window-maximized="1"
     inkscape:current-layer="g3344"
     showguides="true"
     showborder="true"
     fit-margin-top="0"
     fit-margin-left="0"
     fit-margin-right="0"
     fit-margin-bottom="0" /><g
     id="g3344"
     inkscape:groupmode="layer"
     inkscape:label="firstplot"
     transform="matrix(1.25,0,0,-1.25,252.38569,974.22161)"><g
       id="g3444"
       transform="matrix(0,-1.237268,1.5430459,0,-203.26643,776.85379)"><g
         id="g3440"><g
           id="g3346"><path
             d="M 0,0 612,0 612,792 0,792 0,0 Z"
             style="fill:#ffffff;fill-opacity:1;fill-rule:nonzero;stroke:none"
             id="path3348"
             inkscape:connector-curvature="0" /></g></g></g><g
       id="g3350"
       transform="matrix(0,-1,1,0,-81.947149,658.23415)"
       style="fill:#00ffff"><path
         d="m 78.4,79.97 69.14,0 0,436.94 -69.14,0 0,-436.94 z"
         style="fill:#00ffff;fill-opacity:1;fill-rule:nonzero;stroke:#000000;stroke-width:0.75;stroke-linecap:round;stroke-linejoin:round;stroke-miterlimit:10;stroke-dasharray:none;stroke-opacity:1"
         id="path3352"
         inkscape:connector-curvature="0" /><path
         d="m 161.37,79.97 69.14,0 0,582.98 -69.14,0 0,-582.98 z"
         style="fill:#00ffff;fill-opacity:1;fill-rule:nonzero;stroke:#000000;stroke-width:0.75;stroke-linecap:round;stroke-linejoin:round;stroke-miterlimit:10;stroke-dasharray:none;stroke-opacity:1"
         id="path3354"
         inkscape:connector-curvature="0" /><path
         d="m 244.34,79.97 69.14,0 0,652.99 -69.14,0 0,-652.99 z"
         style="fill:#00ffff;fill-opacity:1;fill-rule:nonzero;stroke:#000000;stroke-width:0.75;stroke-linecap:round;stroke-linejoin:round;stroke-miterlimit:10;stroke-dasharray:none;stroke-opacity:1"
         id="path3356"
         inkscape:connector-curvature="0" /><path
         d="m 327.31,79.97 69.14,0 0,243.91 -69.14,0 0,-243.91 z"
         style="fill:#00ffff;fill-opacity:1;fill-rule:nonzero;stroke:#000000;stroke-width:0.75;stroke-linecap:round;stroke-linejoin:round;stroke-miterlimit:10;stroke-dasharray:none;stroke-opacity:1"
         id="path3358"
         inkscape:connector-curvature="0" /><path
         d="m 410.29,79.97 69.14,0 0,465.25 -69.14,0 0,-465.25 z"
         style="fill:#00ffff;fill-opacity:1;fill-rule:nonzero;stroke:#000000;stroke-width:0.75;stroke-linecap:round;stroke-linejoin:round;stroke-miterlimit:10;stroke-dasharray:none;stroke-opacity:1"
         id="path3360"
         inkscape:connector-curvature="0" /><path
         d="m 493.26,79.97 69.14,0 0,458.23 -69.14,0 0,-458.23 z"
         style="fill:#00ffff;fill-opacity:1;fill-rule:nonzero;stroke:#000000;stroke-width:0.75;stroke-linecap:round;stroke-linejoin:round;stroke-miterlimit:10;stroke-dasharray:none;stroke-opacity:1"
         id="path3362"
         inkscape:connector-curvature="0" /></g><g
       id="g3364"
       transform="matrix(0,-1,1,0,-80.745875,658.27383)"><text
         transform="matrix(0,0.95356618,1.0486949,0,0,0)"
         style="font-style:normal;font-variant:normal;font-weight:normal;font-stretch:normal;font-size:41.20771408px;line-height:125%;font-family:Helvetica;-inkscape-font-specification:'Helvetica, Normal';text-align:start;writing-mode:lr-tb;text-anchor:start;fill:#000000;fill-opacity:1;fill-rule:nonzero;stroke:none"
         id="text3366"
         x="-104.64333"
         y="122.81938"
         sodipodi:linespacing="125%"><tspan
           x="-104.64333"
           sodipodi:role="line"
           id="tspan3368"
           y="122.81938">Compact</tspan></text>
<text
         transform="matrix(0,1.0474103,0.95473571,0,0,0)"
         style="font-variant:normal;font-weight:normal;font-size:46.20241928px;font-family:Helvetica;-inkscape-font-specification:Helvetica;writing-mode:lr-tb;fill:#000000;fill-opacity:1;fill-rule:nonzero;stroke:none"
         id="text3370"
         x="-61.54858"
         y="218.02628"><tspan
           x="-61.54858 -35.860027 -10.171484 5.2139206 30.902464"
           y="218.02628"
           sodipodi:role="line"
           id="tspan3372">Large</tspan></text>
<text
         transform="matrix(0,0.97008773,1.0308346,0,0,0)"
         style="font-variant:normal;font-weight:normal;font-size:43.18109131px;font-family:Helvetica;-inkscape-font-specification:Helvetica;writing-mode:lr-tb;fill:#000000;fill-opacity:1;fill-rule:nonzero;stroke:none"
         id="text3374"
         x="-85.033501"
         y="284.03271"><tspan
           x="-85.033501 -49.063648 -39.477451 -15.468767 6.1217771 15.707973 36.650818"
           y="284.03271"
           sodipodi:role="line"
           id="tspan3376">Midsize</tspan></text>
<text
         transform="matrix(0,1,1,0,0,0)"
         style="font-variant:normal;font-weight:normal;font-size:39.19449615px;font-family:Helvetica;-inkscape-font-specification:Helvetica;writing-mode:lr-tb;fill:#000000;fill-opacity:1;fill-rule:nonzero;stroke:none"
         id="text3378"
         x="-42.272007"
         y="376.00342"><tspan
           x="-42.272007 -16.129276 16.519737 38.311886 47.013069"
           y="376.00342"
           sodipodi:role="line"
           id="tspan3380">Small</tspan></text>
<text
         transform="matrix(0,1,1,0,0,0)"
         style="font-variant:normal;font-weight:normal;font-size:36.19380188px;font-family:Helvetica;-inkscape-font-specification:Helvetica;writing-mode:lr-tb;fill:#000000;fill-opacity:1;fill-rule:nonzero;stroke:none"
         id="text3382"
         x="-51.802792"
         y="452.92783"><tspan
           x="-51.802792 -27.661528 -7.537775 12.585977 26.086262 36.148144"
           y="452.92783"
           sodipodi:role="line"
           id="tspan3384">Sporty</tspan></text>
<text
         transform="matrix(0,1,1,0,0,0)"
         style="font-variant:normal;font-weight:normal;font-size:38.81005096px;font-family:Helvetica;-inkscape-font-specification:Helvetica;writing-mode:lr-tb;fill:#000000;fill-opacity:1;fill-rule:nonzero;stroke:none"
         id="text3386"
         x="-12.632477"
         y="543.74652"><tspan
           x="-12.632477 10.537119 32.115505"
           y="543.74652"
           sodipodi:role="line"
           id="tspan3388">Van</tspan></text>
<path
         d="m 59.04,79.97 0,599.77"
         style="fill:none;stroke:#000000;stroke-width:0.75;stroke-linecap:round;stroke-linejoin:round;stroke-miterlimit:10;stroke-dasharray:none;stroke-opacity:1"
         id="path3390"
         inkscape:connector-curvature="0" /><path
         d="m 59.04,79.97 -7.2,0"
         style="fill:none;stroke:#000000;stroke-width:0.75;stroke-linecap:round;stroke-linejoin:round;stroke-miterlimit:10;stroke-dasharray:none;stroke-opacity:1"
         id="path3392"
         inkscape:connector-curvature="0" /><path
         d="m 59.04,199.92 -7.2,0"
         style="fill:none;stroke:#000000;stroke-width:0.75;stroke-linecap:round;stroke-linejoin:round;stroke-miterlimit:10;stroke-dasharray:none;stroke-opacity:1"
         id="path3394"
         inkscape:connector-curvature="0" /><path
         d="m 59.04,319.88 -7.2,0"
         style="fill:none;stroke:#000000;stroke-width:0.75;stroke-linecap:round;stroke-linejoin:round;stroke-miterlimit:10;stroke-dasharray:none;stroke-opacity:1"
         id="path3396"
         inkscape:connector-curvature="0" /><path
         d="m 59.04,439.83 -7.2,0"
         style="fill:none;stroke:#000000;stroke-width:0.75;stroke-linecap:round;stroke-linejoin:round;stroke-miterlimit:10;stroke-dasharray:none;stroke-opacity:1"
         id="path3398"
         inkscape:connector-curvature="0" /><path
         d="m 59.04,559.79 -7.2,0"
         style="fill:none;stroke:#000000;stroke-width:0.75;stroke-linecap:round;stroke-linejoin:round;stroke-miterlimit:10;stroke-dasharray:none;stroke-opacity:1"
         id="path3400"
         inkscape:connector-curvature="0" /><path
         d="m 59.04,679.74 -7.2,0"
         style="fill:none;stroke:#000000;stroke-width:0.75;stroke-linecap:round;stroke-linejoin:round;stroke-miterlimit:10;stroke-dasharray:none;stroke-opacity:1"
         id="path3402"
         inkscape:connector-curvature="0" /><text
         transform="matrix(0,1,1,0,0,0)"
         style="font-variant:normal;font-weight:normal;font-size:46.27118683px;font-family:Helvetica;-inkscape-font-specification:Helvetica;writing-mode:lr-tb;fill:#000000;fill-opacity:1;fill-rule:nonzero;stroke:none"
         id="text3404"
         x="74.263626"
         y="41.39048"><tspan
           x="74.263626"
           y="41.39048"
           id="tspan3406">0</tspan></text>
<text
         transform="matrix(0,1,1,0,0,0)"
         style="font-variant:normal;font-weight:normal;font-size:39.10467148px;font-family:Helvetica;-inkscape-font-specification:Helvetica;writing-mode:lr-tb;fill:#000000;fill-opacity:1;fill-rule:nonzero;stroke:none"
         id="text3408"
         x="188.98933"
         y="37.329159"><tspan
           x="188.98933"
           y="37.329159"
           id="tspan3410">5</tspan></text>
<text
         transform="matrix(0,1,1,0,0,0)"
         style="font-variant:normal;font-weight:normal;font-size:40.60699463px;font-family:Helvetica;-inkscape-font-specification:Helvetica;writing-mode:lr-tb;fill:#000000;fill-opacity:1;fill-rule:nonzero;stroke:none"
         id="text3412"
         x="294.47128"
         y="38.693756"><tspan
           x="294.47128 317.04877"
           y="38.693756"
           sodipodi:role="line"
           id="tspan3414">10</tspan></text>
<text
         transform="matrix(0,1,1,0,0,0)"
         style="font-variant:normal;font-weight:normal;font-size:37.53595352px;font-family:Helvetica;-inkscape-font-specification:Helvetica;writing-mode:lr-tb;fill:#000000;fill-opacity:1;fill-rule:nonzero;stroke:none"
         id="text3416"
         x="416.14862"
         y="41.497108"><tspan
           x="416.14862 437.01859"
           y="41.497108"
           sodipodi:role="line"
           id="tspan3418">15</tspan></text>
<text
         transform="matrix(0,1,1,0,0,0)"
         style="font-variant:normal;font-weight:normal;font-size:38.73449707px;font-family:Helvetica;-inkscape-font-specification:Helvetica;writing-mode:lr-tb;fill:#000000;fill-opacity:1;fill-rule:nonzero;stroke:none"
         id="text3420"
         x="539.14008"
         y="41.482479"><tspan
           x="539.14008 560.67645"
           y="41.482479"
           sodipodi:role="line"
           id="tspan3422">20</tspan></text>
<text
         transform="matrix(0,1,1,0,0,0)"
         style="font-variant:normal;font-weight:normal;font-size:34.58214188px;font-family:Helvetica;-inkscape-font-specification:Helvetica;writing-mode:lr-tb;fill:#000000;fill-opacity:1;fill-rule:nonzero;stroke:none"
         id="text3424"
         x="660.60834"
         y="41.533169"><tspan
           x="660.60834 679.83606"
           y="41.533169"
           sodipodi:role="line"
           id="tspan3426">25</tspan></text>
<path
         style="fill:#ff00ff"
         d="m -0.42671631,722.92744 0,-42.03639 289.10745631,0 289.10745,0 0,42.03639 0,42.0364 -289.10745,0 -289.10745631,0 0,-42.0364 z"
         id="path3466"
         inkscape:connector-curvature="0"
         transform="matrix(0,0.8,0.8,0,-133.72617,80.745875)" /><path
         style="fill:#ff00ff"
         d="m -0.42671631,722.92744 0,-42.03639 289.10745631,0 289.10745,0 0,42.03639 0,42.0364 -289.10745,0 -289.10745631,0 0,-42.0364 z"
         id="path3468"
         inkscape:connector-curvature="0"
         transform="matrix(0,0.8,0.8,0,-133.72617,80.745875)" /><path
         style="fill:#ff0000"
         d="m -1.3986084,722.92744 c -0.00105,-23.59185 0.2406029,-33.48104 0.53700139,-21.97597 0.29639845,11.50508 0.29725565,30.8075 0.001905,42.89428 -0.29535029,12.08679 -0.53785829,2.67354 -0.53890589,-20.91831 z"
         id="path3470"
         inkscape:connector-curvature="0"
         transform="matrix(0,0.8,0.8,0,-133.72617,80.745875)" /><path
         style="fill:#ff0000"
         d="m -0.42671631,827.58949 0,-42.0364 284.81802631,0 284.81802,0 0,42.0364 0,42.03639 -284.81802,0 -284.81802631,0 0,-42.03639 z"
         id="path3472"
         inkscape:connector-curvature="0"
         transform="matrix(0,0.8,0.8,0,-133.72617,80.745875)" /><path
         style="fill:#00ff00"
         d="m -0.42671631,619.98117 0,-42.0364 150.98786631,0 150.98787,0 0,42.0364 0,42.03639 -150.98787,0 -150.98786631,0 0,-42.03639 z"
         id="path3474"
         inkscape:connector-curvature="0"
         transform="matrix(0,0.8,0.8,0,-133.72617,80.745875)" /><path
         style="fill:#0000ff;stroke:#ffff00"
         d="m -0.42671631,515.31912 0,-42.03639 406.63778631,0 406.63778,0 0,42.03639 0,42.0364 -406.63778,0 -406.63778631,0 0,-42.0364 z"
         id="path3476"
         inkscape:connector-curvature="0"
         transform="matrix(0,0.8,0.8,0,-133.72617,80.745875)" /><path
         style="fill:#ffff00;stroke:#ffff00;stroke-width:1.7157712"
         d="m -0.42671631,412.37285 0,-42.0364 362.88561631,0 362.88561,0 0,42.0364 0,42.03639 -362.88561,0 -362.88561631,0 0,-42.03639 z"
         id="path3478"
         inkscape:connector-curvature="0"
         transform="matrix(0,0.8,0.8,0,-133.72617,80.745875)" /></g><flowRoot
       xml:space="preserve"
       id="flowRoot3432"
       style="font-style:normal;font-weight:normal;font-size:40px;line-height:125%;font-family:sans-serif;letter-spacing:0px;word-spacing:0px;fill:#000000;fill-opacity:1;stroke:none;stroke-width:1px;stroke-linecap:butt;stroke-linejoin:miter;stroke-opacity:1"
       transform="matrix(1.2168452,0,0,-1.2168452,706.83167,1171.2253)"><flowRegion
         id="flowRegion3434"><rect
           id="rect3436"
           width="708.61353"
           height="68.630829"
           x="-660.57196"
           y="319.13345" /></flowRegion><flowPara
         id="flowPara3438">The price of different types of car</flowPara></flowRoot><flowRoot
       xml:space="preserve"
       id="flowRoot4288"
       style="font-style:normal;font-weight:normal;font-size:40px;line-height:125%;font-family:sans-serif;letter-spacing:0px;word-spacing:0px;fill:#000000;fill-opacity:1;stroke:none;stroke-width:1px;stroke-linecap:butt;stroke-linejoin:miter;stroke-opacity:1"
       transform="matrix(0.8,0,0,-0.8,0,792)"><flowRegion
         id="flowRegion4290"><rect
           id="rect4292"
           width="575.64612"
           height="67.418015"
           x="834.94611"
           y="182.71257" /></flowRegion><flowPara
         id="flowPara4294">Mean price in $1000s</flowPara></flowRoot><flowRoot
       xml:space="preserve"
       id="flowRoot4296"
       style="font-style:normal;font-weight:normal;font-size:40px;line-height:125%;font-family:sans-serif;letter-spacing:0px;word-spacing:0px;fill:#000000;fill-opacity:1;stroke:none;stroke-width:1px;stroke-linecap:butt;stroke-linejoin:miter;stroke-opacity:1"
       transform="matrix(0.8,0,0,-0.8,170.10082,189.04099)"><flowRegion
         id="flowRegion4298"><rect
           id="rect4300"
           width="430.43805"
           height="79.518677"
           x="-465.01138"
           y="156.78256" /></flowRegion><flowPara
         id="flowPara4302">Type of car</flowPara></flowRoot><path
       style="fill:none;fill-rule:evenodd;stroke:#000000;stroke-width:0.80000001px;stroke-linecap:butt;stroke-linejoin:miter;stroke-opacity:1"
       d="m 652.74462,294.56483 -409.34832,0 63.12027,36.44251"
       id="path4312"
       inkscape:connector-curvature="0" /><path
       style="fill:none;fill-rule:evenodd;stroke:#000000;stroke-width:0.80000001px;stroke-linecap:butt;stroke-linejoin:miter;stroke-opacity:1"
       d="m 246.16216,293.1819 58.08321,-34.57333"
       id="path4314"
       inkscape:connector-curvature="0" /><path
       style="fill:none;fill-rule:evenodd;stroke:#000000;stroke-width:0.80000001px;stroke-linecap:butt;stroke-linejoin:miter;stroke-opacity:1"
       d="M 651.36168,293.1819 Z"
       id="path4316"
       inkscape:connector-curvature="0" /><path
       style="fill:none;fill-rule:evenodd;stroke:#000000;stroke-width:0.80000001px;stroke-linecap:butt;stroke-linejoin:miter;stroke-opacity:1"
       d="m 573.9174,255.8427 77.44428,40.10507 -77.44428,41.488"
       id="path4320"
       inkscape:connector-curvature="0" /><flowRoot
       xml:space="preserve"
       id="flowRoot4322"
       style="font-style:normal;font-weight:normal;font-size:20px;line-height:125%;font-family:sans-serif;letter-spacing:0px;word-spacing:0px;fill:#000000;fill-opacity:1;stroke:none;stroke-width:1px;stroke-linecap:butt;stroke-linejoin:miter;stroke-opacity:1"
       transform="matrix(0.8,0,0,-0.8,0,792)"><flowRegion
         id="flowRegion4324"><rect
           id="rect4326"
           width="347.46201"
           height="27.658693"
           x="402.77939"
           y="587.22064"
           style="font-size:20px" /></flowRegion><flowPara
         id="flowPara4328">Maximum mean price difference</flowPara></flowRoot></g><g
     inkscape:groupmode="layer"
     id="layer1"
     inkscape:label="firstplot 1a"
     transform="translate(252.38569,-15.778364)" /></svg>